<svg width="19" height="8" viewBox="0 0 19 8" fill="none" xmlns="http://www.w3.org/2000/svg">
<path fill-rule="evenodd" clip-rule="evenodd" d="M3.65138 1.4308C3.42807 1.68992 3.08155 1.88425 2.72733 1.85546C2.68112 1.51717 2.85823 1.15009 3.05844 0.926961C3.27406 0.667844 3.65908 0.480704 3.9748 0.466309C4.0133 0.826193 3.86699 1.17168 3.65138 1.4308Z" fill="black"/>
<path fill-rule="evenodd" clip-rule="evenodd" d="M3.96709 1.92744C3.65908 1.90585 3.37416 2.01381 3.15085 2.10019C3.00454 2.15777 2.87363 2.20815 2.78123 2.20815C2.67342 2.20815 2.54252 2.15777 2.39621 2.10019C2.2114 2.02821 1.99579 1.94184 1.76477 1.94903C1.24115 1.95623 0.756018 2.24414 0.486504 2.70479C-0.0602264 3.6261 0.340196 4.98646 0.871525 5.73502C1.13334 6.1093 1.44906 6.51237 1.85718 6.49798C2.03429 6.49078 2.1652 6.4404 2.3038 6.38282C2.45781 6.31804 2.61952 6.25326 2.87363 6.25326C3.11235 6.25326 3.26636 6.31804 3.42036 6.38282C3.55127 6.4404 3.68218 6.49798 3.88239 6.49078C4.30591 6.48358 4.57543 6.1165 4.83724 5.74942C5.11446 5.35354 5.23766 4.96487 5.26077 4.90009V4.89289C5.26077 4.89289 5.25307 4.89289 5.25307 4.88569C5.16066 4.84251 4.44452 4.52581 4.43682 3.66928C4.42912 2.94951 5.00665 2.58243 5.09906 2.52485C5.10676 2.52485 5.10676 2.51765 5.10676 2.51765C4.73714 1.99942 4.16731 1.94184 3.96709 1.92744Z" fill="black"/>
<path fill-rule="evenodd" clip-rule="evenodd" d="M9.04937 0.890973H6.90866V6.45479H7.79421V4.5474H9.01857C10.1428 4.5474 10.9283 3.79884 10.9283 2.71199C10.9283 1.62514 10.1582 0.890973 9.04937 0.890973ZM8.81836 3.82763H7.79421V1.61794H8.81836C9.5884 1.61794 10.0273 2.02101 10.0273 2.71919C10.0273 3.41736 9.5884 3.82763 8.81836 3.82763Z" fill="black"/>
<path fill-rule="evenodd" clip-rule="evenodd" d="M13.0228 2.3665C12.0833 2.3665 11.3826 2.89193 11.3595 3.6117H12.1603C12.2296 3.26621 12.5531 3.04308 12.9997 3.04308C13.5387 3.04308 13.8467 3.28781 13.8467 3.74126V4.05076L12.7379 4.11554C11.706 4.17312 11.1516 4.58339 11.1516 5.30316C11.1516 6.02293 11.7291 6.50518 12.5531 6.50518C13.1075 6.50518 13.6234 6.23166 13.8621 5.7926H13.8775V6.46199H14.7015V3.68368C14.6938 2.88473 14.0392 2.3665 13.0228 2.3665ZM13.8467 4.94328C13.8467 5.46151 13.3924 5.83579 12.7918 5.83579C12.3221 5.83579 12.0217 5.61266 12.0217 5.27437C12.0217 4.92168 12.3144 4.72015 12.8611 4.69136L13.8467 4.63377V4.94328Z" fill="black"/>
<path fill-rule="evenodd" clip-rule="evenodd" d="M17.4197 6.67072C17.0655 7.64241 16.6574 7.96631 15.7949 7.96631C15.7256 7.96631 15.51 7.95911 15.4561 7.94472V7.27533C15.51 7.28253 15.6486 7.28972 15.7179 7.28972C16.1107 7.28972 16.3263 7.13138 16.4649 6.71391L16.5419 6.46919L15.0403 2.41688H15.9644L17.0116 5.69903H17.027L18.0743 2.41688H18.9752L17.4197 6.67072Z" fill="black"/>
</svg>
