<svg width="20" height="8" viewBox="0 0 20 8" fill="none" xmlns="http://www.w3.org/2000/svg">
<path fill-rule="evenodd" clip-rule="evenodd" d="M11.7485 1.32078C11.4385 1.00325 11.0076 0.836925 10.5615 0.844485H8.72437V6.3181H9.41991V4.10295H10.5615C11.0302 4.10295 11.4309 3.94418 11.7485 3.63421L11.8241 3.55861C12.4213 2.91599 12.376 1.91804 11.7485 1.32078ZM11.2646 3.1428C11.0907 3.3318 10.8412 3.43765 10.5766 3.43009H9.41991V1.51735H10.5842C10.8337 1.51735 11.068 1.61563 11.2495 1.78951C11.6199 2.15241 11.6275 2.76478 11.2646 3.1428Z" fill="#3C4043"/>
<path fill-rule="evenodd" clip-rule="evenodd" d="M13.8502 2.45482C13.1925 2.45482 12.6935 2.69674 12.3684 3.1806L12.9808 3.56617C13.2076 3.23352 13.51 3.06719 13.8956 3.06719C14.1375 3.06719 14.3794 3.15792 14.5609 3.32424C14.7423 3.49057 14.8482 3.71737 14.8482 3.95174V4.11051C14.5835 3.9593 14.2433 3.8837 13.8351 3.8837C13.3512 3.8837 12.9657 3.9971 12.6784 4.23147C12.3835 4.46584 12.2399 4.76825 12.2399 5.16138C12.2323 5.51671 12.376 5.84936 12.6481 6.07617C12.9203 6.3181 13.2605 6.44662 13.6688 6.44662C14.1451 6.44662 14.5231 6.23493 14.8104 5.804H14.8406V6.32566H15.5059V4.01222C15.5059 3.52837 15.3623 3.1428 15.0598 2.87063C14.7574 2.59846 14.3567 2.45482 13.8502 2.45482ZM14.5004 5.48647C14.2887 5.69816 14.009 5.81156 13.7217 5.81156C13.5251 5.81912 13.3361 5.75108 13.1773 5.63011C13.0337 5.52427 12.9505 5.35795 12.9505 5.16894C12.9505 4.96481 13.0488 4.79093 13.2303 4.65484C13.4193 4.52632 13.6612 4.45828 13.9409 4.45828C14.3265 4.45072 14.6289 4.54144 14.8482 4.71533C14.8406 5.01017 14.7272 5.26722 14.5004 5.48647Z" fill="#3C4043"/>
<path fill-rule="evenodd" clip-rule="evenodd" d="M18.5602 2.57578L17.4867 5.26722H17.4716L16.3753 2.57578H15.6193L17.1389 6.08373L16.277 7.96623H16.9953L19.3087 2.57578H18.5602Z" fill="#3C4043"/>
<path d="M7.05035 3.6811C7.05035 3.4671 7.03313 3.25309 6.99869 3.04346H4.07568V4.25324H5.75028C5.6814 4.64194 5.45755 4.99134 5.13038 5.20971V5.99585H6.1291C6.71457 5.44992 7.05035 4.64194 7.05035 3.6811Z" fill="#4285F4"/>
<path d="M4.07589 6.75572C4.91103 6.75572 5.61703 6.47621 6.12931 5.99579L5.13058 5.20965C4.85076 5.40181 4.49346 5.511 4.07589 5.511C3.26657 5.511 2.5821 4.95633 2.33672 4.21387H1.30786V5.02621C1.83305 6.0875 2.90497 6.75572 4.07589 6.75572Z" fill="#34A853"/>
<path d="M2.33685 4.21359C2.20768 3.82489 2.20768 3.40124 2.33685 3.00817V2.2002H1.30782C0.864352 3.08679 0.864352 4.13498 1.30782 5.02157L2.33685 4.21359Z" fill="#FBBC04"/>
<path d="M4.07589 1.71122C4.51929 1.70249 4.94547 1.87282 5.26403 2.18291L6.15083 1.28321C5.5869 0.750383 4.84646 0.457764 4.07589 0.466499C2.90497 0.466499 1.83305 1.13909 1.30786 2.20038L2.33672 3.01272C2.5821 2.26589 3.26657 1.71122 4.07589 1.71122Z" fill="#EA4335"/>
</svg>
