<svg width="10" height="12" viewBox="0 0 10 12" fill="none" xmlns="http://www.w3.org/2000/svg">
<path d="M9.05765 3.44971C9.04724 3.51644 9.03533 3.58465 9.02192 3.65474C8.56068 6.02241 6.98305 6.84034 4.96801 6.84034H3.94208C3.69569 6.84034 3.48804 7.01927 3.44962 7.26234L2.92431 10.5937L2.77557 11.538C2.75057 11.6976 2.87366 11.8415 3.03463 11.8415H4.85436C5.06985 11.8415 5.25282 11.6849 5.28673 11.4724L5.30465 11.3799L5.64731 9.20573L5.66931 9.0865C5.70279 8.87327 5.88619 8.7167 6.10168 8.7167H6.37383C8.13679 8.7167 9.51696 8.00091 9.92035 5.92958C10.0888 5.06431 10.0016 4.34182 9.5557 3.83369C9.4208 3.68047 9.25339 3.55334 9.05765 3.44971Z" fill="#179BD7"/>
<path d="M8.575 3.25732C8.5046 3.23681 8.43184 3.21817 8.35726 3.2014C8.28235 3.185 8.20551 3.17046 8.12653 3.15778C7.84987 3.11305 7.54682 3.0918 7.22209 3.0918H4.48128C4.41377 3.0918 4.34971 3.10708 4.29229 3.13467C4.16588 3.19543 4.07198 3.31511 4.04923 3.46161L3.46608 7.15459L3.44934 7.26232C3.48776 7.01926 3.69541 6.84031 3.94181 6.84031H4.96773C6.98277 6.84031 8.56051 6.02202 9.02164 3.65473C9.03538 3.58464 9.04697 3.51642 9.05738 3.44969C8.94072 3.3878 8.81431 3.33486 8.67823 3.28975C8.64475 3.27857 8.61009 3.26776 8.575 3.25732Z" fill="#222D65"/>
<path d="M4.04928 3.46151C4.07203 3.31499 4.16603 3.19532 4.29234 3.13493C4.35018 3.10734 4.41393 3.09206 4.48132 3.09206H7.22224C7.54697 3.09206 7.85003 3.1133 8.12658 3.15804C8.20567 3.17072 8.2825 3.18526 8.35741 3.20166C8.43199 3.21844 8.50464 3.23708 8.57515 3.25758C8.61014 3.26802 8.6448 3.27883 8.67871 3.28964C8.81478 3.33475 8.9412 3.38806 9.05785 3.44957C9.19511 2.57461 9.05678 1.97887 8.58374 1.43942C8.06219 0.845558 7.12083 0.591309 5.91633 0.591309H2.41939C2.17331 0.591309 1.96351 0.770245 1.92542 1.01369L0.468947 10.2461C0.440187 10.4288 0.581091 10.5936 0.765242 10.5936H2.92419L3.46624 7.15447L4.04928 3.46151Z" fill="#253B80"/>
</svg>
