<svg width="20" height="7" viewBox="0 0 20 7" fill="none" xmlns="http://www.w3.org/2000/svg">
<path fill-rule="evenodd" clip-rule="evenodd" d="M6.08695 0.231891L4.39425 4.33222L3.73507 0.833273C3.68624 0.505247 3.40955 0.224081 3.02706 0.224081H0.30896V0.411525C0.870483 0.505247 1.39132 0.692691 1.85518 0.926995C2.04236 1.02072 2.17257 1.21597 2.22953 1.44247L3.49906 6.29257H5.19177L7.73083 0.231891H6.08695Z" fill="#172B85"/>
<path fill-rule="evenodd" clip-rule="evenodd" d="M8.38188 0.231891L7.07166 6.29257H8.66671L9.98507 0.231891H8.38188Z" fill="#172B85"/>
<path fill-rule="evenodd" clip-rule="evenodd" d="M12.044 1.91107C12.0928 1.58305 12.3695 1.3956 12.7032 1.3956C13.2159 1.34874 13.7855 1.44247 14.2494 1.67677L14.5342 0.372474C14.0622 0.18503 13.5495 0.0913086 13.0775 0.0913086C11.5313 0.0913086 10.4001 0.926995 10.4001 2.09852C10.4001 2.98107 11.1976 3.44968 11.7592 3.73084C12.3695 4.01201 12.6055 4.19945 12.5567 4.47281C12.5567 4.89456 12.0847 5.082 11.6208 5.082C11.0593 5.082 10.4896 4.94142 9.97693 4.70711L9.6921 6.01141C10.2618 6.24571 10.8721 6.33943 11.4336 6.33943C13.167 6.38629 14.2494 5.55061 14.2494 4.28536C14.2575 2.6999 12.044 2.60618 12.044 1.91107Z" fill="#172B85"/>
<path fill-rule="evenodd" clip-rule="evenodd" d="M18.5707 0.231891H17.2116C16.9268 0.231891 16.6501 0.419335 16.5524 0.700501L14.2087 6.29257H15.8526L16.1781 5.41003H18.1963L18.3835 6.29257H19.8402L18.5707 0.231891ZM16.6013 4.14478L17.4476 1.86421L17.9196 4.14478H16.6013Z" fill="#172B85"/>
</svg>
